<svg width="44.000000" height="39.000000" viewBox="0 0 44 39" fill="none" xmlns="http://www.w3.org/2000/svg" xmlns:xlink="http://www.w3.org/1999/xlink">
	<desc>
			Created with Pixso.
	</desc>
	<defs/>
	<path id="Vector" d="M34.82 2.78C33.57 2.26 32.23 2 30.87 2C29.52 2 28.18 2.26 26.92 2.78C25.67 3.3 24.54 4.06 23.58 5.02L21.59 7L19.6 5.02C17.67 3.08 15.05 2 12.31 2C9.57 2 6.95 3.08 5.02 5.02C3.08 6.95 2 9.58 2 12.31C2 15.05 3.08 17.67 5.02 19.6L7 21.59L21.59 36.18L36.18 21.59L38.17 19.6C39.12 18.65 39.88 17.51 40.4 16.26C40.92 15.01 41.19 13.67 41.19 12.31C41.19 10.96 40.92 9.61 40.4 8.36C39.88 7.11 39.12 5.97 38.17 5.02C37.21 4.06 36.07 3.3 34.82 2.78Z" stroke="#FFFFFF" stroke-opacity="1.000000" stroke-width="5.000000" stroke-linejoin="round"/>
</svg>
