<?xml version="1.0" encoding="UTF-8" ?>
<svg version="1.1" width="255" height="1" xmlns="http://www.w3.org/2000/svg" shape-rendering="crispEdges">
<rect x="0" y="0" width="1" height="1" fill="#FFFFFF" />
<rect x="1" y="0" width="1" height="1" fill="#FFFFFF" />
<rect x="2" y="0" width="1" height="1" fill="#FFFFFF" />
<rect x="3" y="0" width="1" height="1" fill="#FFFFFF" />
<rect x="4" y="0" width="1" height="1" fill="#FFFFFF" />
<rect x="5" y="0" width="1" height="1" fill="#FFFFFF" />
<rect x="6" y="0" width="1" height="1" fill="#FFFFFF" />
<rect x="7" y="0" width="1" height="1" fill="#FFFFFF" />
<rect x="8" y="0" width="1" height="1" fill="#FFFFFF" />
<rect x="9" y="0" width="1" height="1" fill="#FFFFFF" />
<rect x="10" y="0" width="1" height="1" fill="#FFFFFF" />
<rect x="11" y="0" width="1" height="1" fill="#FFFFFF" />
<rect x="12" y="0" width="1" height="1" fill="#FFFFFF" />
<rect x="13" y="0" width="1" height="1" fill="#FFFFFF" />
<rect x="14" y="0" width="1" height="1" fill="#FFFFFF" />
<rect x="15" y="0" width="1" height="1" fill="#FFFFFF" />
<rect x="16" y="0" width="1" height="1" fill="#FFFFFF" />
<rect x="17" y="0" width="1" height="1" fill="#FFFFFF" />
<rect x="18" y="0" width="1" height="1" fill="#FFFFFF" />
<rect x="19" y="0" width="1" height="1" fill="#FFFFFF" />
<rect x="20" y="0" width="1" height="1" fill="#FFFFFF" />
<rect x="21" y="0" width="1" height="1" fill="#FFFFFF" />
<rect x="22" y="0" width="1" height="1" fill="#FFFFFF" />
<rect x="23" y="0" width="1" height="1" fill="#FFFFFF" />
<rect x="24" y="0" width="1" height="1" fill="#FFFFFF" />
<rect x="25" y="0" width="1" height="1" fill="#FFFFFF" />
<rect x="26" y="0" width="1" height="1" fill="#FFFFFF" />
<rect x="27" y="0" width="1" height="1" fill="#FFFFFF" />
<rect x="28" y="0" width="1" height="1" fill="#FFFFFF" />
<rect x="29" y="0" width="1" height="1" fill="#FFFFFF" />
<rect x="30" y="0" width="1" height="1" fill="#FFFFFF" />
<rect x="31" y="0" width="1" height="1" fill="#FFFFFF" />
<rect x="32" y="0" width="1" height="1" fill="#FFFFFF" />
<rect x="33" y="0" width="1" height="1" fill="#FFFFFF" />
<rect x="34" y="0" width="1" height="1" fill="#FFFFFF" />
<rect x="35" y="0" width="1" height="1" fill="#FFFFFF" />
<rect x="36" y="0" width="1" height="1" fill="#FFFFFF" />
<rect x="37" y="0" width="1" height="1" fill="#FFFFFF" />
<rect x="38" y="0" width="1" height="1" fill="#FFFFFF" />
<rect x="39" y="0" width="1" height="1" fill="#FFFFFF" />
<rect x="40" y="0" width="1" height="1" fill="#FFFFFF" />
<rect x="41" y="0" width="1" height="1" fill="#FFFFFF" />
<rect x="42" y="0" width="1" height="1" fill="#FFFFFF" />
<rect x="43" y="0" width="1" height="1" fill="#FFFFFF" />
<rect x="44" y="0" width="1" height="1" fill="#FFFFFF" />
<rect x="45" y="0" width="1" height="1" fill="#FFFFFF" />
<rect x="46" y="0" width="1" height="1" fill="#FFFFFF" />
<rect x="47" y="0" width="1" height="1" fill="#FFFFFF" />
<rect x="48" y="0" width="1" height="1" fill="#FFFFFF" />
<rect x="49" y="0" width="1" height="1" fill="#FFFFFF" />
<rect x="50" y="0" width="1" height="1" fill="#FFFFFF" />
<rect x="51" y="0" width="1" height="1" fill="#FFFFFF" />
<rect x="52" y="0" width="1" height="1" fill="#FFFFFF" />
<rect x="53" y="0" width="1" height="1" fill="#FFFFFF" />
<rect x="54" y="0" width="1" height="1" fill="#FFFFFF" />
<rect x="55" y="0" width="1" height="1" fill="#FFFFFF" />
<rect x="56" y="0" width="1" height="1" fill="#FFFFFF" />
<rect x="57" y="0" width="1" height="1" fill="#FFFFFF" />
<rect x="58" y="0" width="1" height="1" fill="#FFFFFF" />
<rect x="59" y="0" width="1" height="1" fill="#FFFFFF" />
<rect x="60" y="0" width="1" height="1" fill="#FFFFFF" />
<rect x="61" y="0" width="1" height="1" fill="#FFFFFF" />
<rect x="62" y="0" width="1" height="1" fill="#FFFFFF" />
<rect x="63" y="0" width="1" height="1" fill="#FFFFFF" />
<rect x="64" y="0" width="1" height="1" fill="#FFFFFF" />
<rect x="65" y="0" width="1" height="1" fill="#FFFFFF" />
<rect x="66" y="0" width="1" height="1" fill="#FFFFFF" />
<rect x="67" y="0" width="1" height="1" fill="#FFFFFF" />
<rect x="68" y="0" width="1" height="1" fill="#FFFFFF" />
<rect x="69" y="0" width="1" height="1" fill="#FFFFFF" />
<rect x="70" y="0" width="1" height="1" fill="#FFFFFF" />
<rect x="71" y="0" width="1" height="1" fill="#FFFFFF" />
<rect x="72" y="0" width="1" height="1" fill="#FFFFFF" />
<rect x="73" y="0" width="1" height="1" fill="#FFFFFF" />
<rect x="74" y="0" width="1" height="1" fill="#FFFFFF" />
<rect x="75" y="0" width="1" height="1" fill="#FFFFFF" />
<rect x="76" y="0" width="1" height="1" fill="#FFFFFF" />
<rect x="77" y="0" width="1" height="1" fill="#FFFFFF" />
<rect x="78" y="0" width="1" height="1" fill="#FFFFFF" />
<rect x="79" y="0" width="1" height="1" fill="#FFFFFF" />
<rect x="80" y="0" width="1" height="1" fill="#FFFFFF" />
<rect x="81" y="0" width="1" height="1" fill="#FFFFFF" />
<rect x="82" y="0" width="1" height="1" fill="#FFFFFF" />
<rect x="83" y="0" width="1" height="1" fill="#FFFFFF" />
<rect x="84" y="0" width="1" height="1" fill="#FFFFFF" />
<rect x="85" y="0" width="1" height="1" fill="#FFFFFF" />
<rect x="86" y="0" width="1" height="1" fill="#FFFFFF" />
<rect x="87" y="0" width="1" height="1" fill="#FFFFFF" />
<rect x="88" y="0" width="1" height="1" fill="#FFFFFF" />
<rect x="89" y="0" width="1" height="1" fill="#FFFFFF" />
<rect x="90" y="0" width="1" height="1" fill="#FFFFFF" />
<rect x="91" y="0" width="1" height="1" fill="#FFFFFF" />
<rect x="92" y="0" width="1" height="1" fill="#FFFFFF" />
<rect x="93" y="0" width="1" height="1" fill="#FFFFFF" />
<rect x="94" y="0" width="1" height="1" fill="#FFFFFF" />
<rect x="95" y="0" width="1" height="1" fill="#FFFFFF" />
<rect x="96" y="0" width="1" height="1" fill="#FFFFFF" />
<rect x="97" y="0" width="1" height="1" fill="#FFFFFF" />
<rect x="98" y="0" width="1" height="1" fill="#FFFFFF" />
<rect x="99" y="0" width="1" height="1" fill="#FFFFFF" />
<rect x="100" y="0" width="1" height="1" fill="#FFFFFF" />
<rect x="101" y="0" width="1" height="1" fill="#FFFFFF" />
<rect x="102" y="0" width="1" height="1" fill="#FFFFFF" />
<rect x="103" y="0" width="1" height="1" fill="#FFFFFF" />
<rect x="104" y="0" width="1" height="1" fill="#FFFFFF" />
<rect x="105" y="0" width="1" height="1" fill="#FFFFFF" />
<rect x="106" y="0" width="1" height="1" fill="#FFFFFF" />
<rect x="107" y="0" width="1" height="1" fill="#FFFFFF" />
<rect x="108" y="0" width="1" height="1" fill="#FFFFFF" />
<rect x="109" y="0" width="1" height="1" fill="#FFFFFF" />
<rect x="110" y="0" width="1" height="1" fill="#FFFFFF" />
<rect x="111" y="0" width="1" height="1" fill="#FFFFFF" />
<rect x="112" y="0" width="1" height="1" fill="#FFFFFF" />
<rect x="113" y="0" width="1" height="1" fill="#FFFFFF" />
<rect x="114" y="0" width="1" height="1" fill="#FFFFFF" />
<rect x="115" y="0" width="1" height="1" fill="#FFFFFF" />
<rect x="116" y="0" width="1" height="1" fill="#FFFFFF" />
<rect x="117" y="0" width="1" height="1" fill="#FFFFFF" />
<rect x="118" y="0" width="1" height="1" fill="#FFFFFF" />
<rect x="119" y="0" width="1" height="1" fill="#FFFFFF" />
<rect x="120" y="0" width="1" height="1" fill="#FFFFFF" />
<rect x="121" y="0" width="1" height="1" fill="#FFFFFF" />
<rect x="122" y="0" width="1" height="1" fill="#FFFFFF" />
<rect x="123" y="0" width="1" height="1" fill="#FFFFFF" />
<rect x="124" y="0" width="1" height="1" fill="#FFFFFF" />
<rect x="125" y="0" width="1" height="1" fill="#FFFFFF" />
<rect x="126" y="0" width="1" height="1" fill="#FFFFFF" />
<rect x="127" y="0" width="1" height="1" fill="#FFFFFF" />
<rect x="128" y="0" width="1" height="1" fill="#FFFFFF" />
<rect x="129" y="0" width="1" height="1" fill="#FFFFFF" />
<rect x="130" y="0" width="1" height="1" fill="#FFFFFF" />
<rect x="131" y="0" width="1" height="1" fill="#FFFFFF" />
<rect x="132" y="0" width="1" height="1" fill="#FFFFFF" />
<rect x="133" y="0" width="1" height="1" fill="#FFFFFF" />
<rect x="134" y="0" width="1" height="1" fill="#FFFFFF" />
<rect x="135" y="0" width="1" height="1" fill="#FFFFFF" />
<rect x="136" y="0" width="1" height="1" fill="#FFFFFF" />
<rect x="137" y="0" width="1" height="1" fill="#FFFFFF" />
<rect x="138" y="0" width="1" height="1" fill="#FFFFFF" />
<rect x="139" y="0" width="1" height="1" fill="#FFFFFF" />
<rect x="140" y="0" width="1" height="1" fill="#FFFFFF" />
<rect x="141" y="0" width="1" height="1" fill="#FFFFFF" />
<rect x="142" y="0" width="1" height="1" fill="#FFFFFF" />
<rect x="143" y="0" width="1" height="1" fill="#FFFFFF" />
<rect x="144" y="0" width="1" height="1" fill="#FFFFFF" />
<rect x="145" y="0" width="1" height="1" fill="#FFFFFF" />
<rect x="146" y="0" width="1" height="1" fill="#FFFFFF" />
<rect x="147" y="0" width="1" height="1" fill="#FFFFFF" />
<rect x="148" y="0" width="1" height="1" fill="#FFFFFF" />
<rect x="149" y="0" width="1" height="1" fill="#FFFFFF" />
<rect x="150" y="0" width="1" height="1" fill="#FFFFFF" />
<rect x="151" y="0" width="1" height="1" fill="#FFFFFF" />
<rect x="152" y="0" width="1" height="1" fill="#FFFFFF" />
<rect x="153" y="0" width="1" height="1" fill="#FFFFFF" />
<rect x="154" y="0" width="1" height="1" fill="#FFFFFF" />
<rect x="155" y="0" width="1" height="1" fill="#FFFFFF" />
<rect x="156" y="0" width="1" height="1" fill="#FFFFFF" />
<rect x="157" y="0" width="1" height="1" fill="#FFFFFF" />
<rect x="158" y="0" width="1" height="1" fill="#FFFFFF" />
<rect x="159" y="0" width="1" height="1" fill="#FFFFFF" />
<rect x="160" y="0" width="1" height="1" fill="#FFFFFF" />
<rect x="161" y="0" width="1" height="1" fill="#FFFFFF" />
<rect x="162" y="0" width="1" height="1" fill="#FFFFFF" />
<rect x="163" y="0" width="1" height="1" fill="#FFFFFF" />
<rect x="164" y="0" width="1" height="1" fill="#FFFFFF" />
<rect x="165" y="0" width="1" height="1" fill="#FFFFFF" />
<rect x="166" y="0" width="1" height="1" fill="#FFFFFF" />
<rect x="167" y="0" width="1" height="1" fill="#FFFFFF" />
<rect x="168" y="0" width="1" height="1" fill="#FFFFFF" />
<rect x="169" y="0" width="1" height="1" fill="#FFFFFF" />
<rect x="170" y="0" width="1" height="1" fill="#FFFFFF" />
<rect x="171" y="0" width="1" height="1" fill="#FFFFFF" />
<rect x="172" y="0" width="1" height="1" fill="#FFFFFF" />
<rect x="173" y="0" width="1" height="1" fill="#FFFFFF" />
<rect x="174" y="0" width="1" height="1" fill="#FFFFFF" />
<rect x="175" y="0" width="1" height="1" fill="#FFFFFF" />
<rect x="176" y="0" width="1" height="1" fill="#FFFFFF" />
<rect x="177" y="0" width="1" height="1" fill="#FFFFFF" />
<rect x="178" y="0" width="1" height="1" fill="#FFFFFF" />
<rect x="179" y="0" width="1" height="1" fill="#FFFFFF" />
<rect x="180" y="0" width="1" height="1" fill="#FFFFFF" />
<rect x="181" y="0" width="1" height="1" fill="#FFFFFF" />
<rect x="182" y="0" width="1" height="1" fill="#FFFFFF" />
<rect x="183" y="0" width="1" height="1" fill="#FFFFFF" />
<rect x="184" y="0" width="1" height="1" fill="#FFFFFF" />
<rect x="185" y="0" width="1" height="1" fill="#FFFFFF" />
<rect x="186" y="0" width="1" height="1" fill="#FFFFFF" />
<rect x="187" y="0" width="1" height="1" fill="#FFFFFF" />
<rect x="188" y="0" width="1" height="1" fill="#FFFFFF" />
<rect x="189" y="0" width="1" height="1" fill="#FFFFFF" />
<rect x="190" y="0" width="1" height="1" fill="#FFFFFF" />
<rect x="191" y="0" width="1" height="1" fill="#FFFFFF" />
<rect x="192" y="0" width="1" height="1" fill="#FFFFFF" />
<rect x="193" y="0" width="1" height="1" fill="#FFFFFF" />
<rect x="194" y="0" width="1" height="1" fill="#FFFFFF" />
<rect x="195" y="0" width="1" height="1" fill="#FFFFFF" />
<rect x="196" y="0" width="1" height="1" fill="#FFFFFF" />
<rect x="197" y="0" width="1" height="1" fill="#FFFFFF" />
<rect x="198" y="0" width="1" height="1" fill="#FFFFFF" />
<rect x="199" y="0" width="1" height="1" fill="#FFFFFF" />
<rect x="200" y="0" width="1" height="1" fill="#FFFFFF" />
<rect x="201" y="0" width="1" height="1" fill="#FFFFFF" />
<rect x="202" y="0" width="1" height="1" fill="#FFFFFF" />
<rect x="203" y="0" width="1" height="1" fill="#FFFFFF" />
<rect x="204" y="0" width="1" height="1" fill="#FFFFFF" />
<rect x="205" y="0" width="1" height="1" fill="#FFFFFF" />
<rect x="206" y="0" width="1" height="1" fill="#FFFFFF" />
<rect x="207" y="0" width="1" height="1" fill="#FFFFFF" />
<rect x="208" y="0" width="1" height="1" fill="#FFFFFF" />
<rect x="209" y="0" width="1" height="1" fill="#FFFFFF" />
<rect x="210" y="0" width="1" height="1" fill="#FFFFFF" />
<rect x="211" y="0" width="1" height="1" fill="#FFFFFF" />
<rect x="212" y="0" width="1" height="1" fill="#FFFFFF" />
<rect x="213" y="0" width="1" height="1" fill="#FFFFFF" />
<rect x="214" y="0" width="1" height="1" fill="#FFFFFF" />
<rect x="215" y="0" width="1" height="1" fill="#FFFFFF" />
<rect x="216" y="0" width="1" height="1" fill="#FFFFFF" />
<rect x="217" y="0" width="1" height="1" fill="#FFFFFF" />
<rect x="218" y="0" width="1" height="1" fill="#FFFFFF" />
<rect x="219" y="0" width="1" height="1" fill="#FFFFFF" />
<rect x="220" y="0" width="1" height="1" fill="#FFFFFF" />
<rect x="221" y="0" width="1" height="1" fill="#FFFFFF" />
<rect x="222" y="0" width="1" height="1" fill="#FFFFFF" />
<rect x="223" y="0" width="1" height="1" fill="#FFFFFF" />
<rect x="224" y="0" width="1" height="1" fill="#FFFFFF" />
<rect x="225" y="0" width="1" height="1" fill="#FFFFFF" />
<rect x="226" y="0" width="1" height="1" fill="#FFFFFF" />
<rect x="227" y="0" width="1" height="1" fill="#FFFFFF" />
<rect x="228" y="0" width="1" height="1" fill="#FFFFFF" />
<rect x="229" y="0" width="1" height="1" fill="#FFFFFF" />
<rect x="230" y="0" width="1" height="1" fill="#FFFFFF" />
<rect x="231" y="0" width="1" height="1" fill="#FFFFFF" />
<rect x="232" y="0" width="1" height="1" fill="#FFFFFF" />
<rect x="233" y="0" width="1" height="1" fill="#FFFFFF" />
<rect x="234" y="0" width="1" height="1" fill="#FFFFFF" />
<rect x="235" y="0" width="1" height="1" fill="#FFFFFF" />
<rect x="236" y="0" width="1" height="1" fill="#FFFFFF" />
<rect x="237" y="0" width="1" height="1" fill="#FFFFFF" />
<rect x="238" y="0" width="1" height="1" fill="#FFFFFF" />
<rect x="239" y="0" width="1" height="1" fill="#FFFFFF" />
<rect x="240" y="0" width="1" height="1" fill="#FFFFFF" />
<rect x="241" y="0" width="1" height="1" fill="#FFFFFF" />
<rect x="242" y="0" width="1" height="1" fill="#FFFFFF" />
<rect x="243" y="0" width="1" height="1" fill="#FFFFFF" />
<rect x="244" y="0" width="1" height="1" fill="#FFFFFF" />
<rect x="245" y="0" width="1" height="1" fill="#FFFFFF" />
<rect x="246" y="0" width="1" height="1" fill="#FFFFFF" />
<rect x="247" y="0" width="1" height="1" fill="#FFFFFF" />
<rect x="248" y="0" width="1" height="1" fill="#FFFFFF" />
<rect x="249" y="0" width="1" height="1" fill="#FFFFFF" />
<rect x="250" y="0" width="1" height="1" fill="#FFFFFF" />
<rect x="251" y="0" width="1" height="1" fill="#FFFFFF" />
<rect x="252" y="0" width="1" height="1" fill="#FFFFFF" />
<rect x="253" y="0" width="1" height="1" fill="#FFFFFF" />
<rect x="254" y="0" width="1" height="1" fill="#FFFFFF" />
</svg>